<?xml version="1.0" encoding="UTF-8" standalone="no"?>
<!-- Created with Inkscape (http://www.inkscape.org/) -->

<svg
   width="400"
   height="400"
   viewBox="0 0 105.83333 105.83333"
   version="1.1"
   id="svg5"
   inkscape:version="1.2.1 (9c6d41e410, 2022-07-14)"
   sodipodi:docname="JPionCodesLogo.svg"
   xmlns:inkscape="http://www.inkscape.org/namespaces/inkscape"
   xmlns:sodipodi="http://sodipodi.sourceforge.net/DTD/sodipodi-0.dtd"
   xmlns:xlink="http://www.w3.org/1999/xlink"
   xmlns="http://www.w3.org/2000/svg"
   xmlns:svg="http://www.w3.org/2000/svg">
  <sodipodi:namedview
     id="namedview7"
     pagecolor="#ffffff"
     bordercolor="#000000"
     borderopacity="0.25"
     inkscape:showpageshadow="2"
     inkscape:pageopacity="0.0"
     inkscape:pagecheckerboard="0"
     inkscape:deskcolor="#d1d1d1"
     inkscape:document-units="mm"
     showgrid="true"
     inkscape:zoom="2"
     inkscape:cx="131.25"
     inkscape:cy="216"
     inkscape:window-width="2160"
     inkscape:window-height="1244"
     inkscape:window-x="1557"
     inkscape:window-y="253"
     inkscape:window-maximized="1"
     inkscape:current-layer="g12739">
    <inkscape:grid
       type="xygrid"
       id="grid306"
       spacingx="10.583333"
       spacingy="10.583333" />
  </sodipodi:namedview>
  <defs
     id="defs2">
    <linearGradient
       inkscape:collect="always"
       id="linearGradient6773">
      <stop
         style="stop-color:#011638;stop-opacity:1;"
         offset="0"
         id="stop6769" />
      <stop
         style="stop-color:#364156;stop-opacity:1;"
         offset="0.58037579"
         id="stop8229" />
      <stop
         style="stop-color:#cdcdcd;stop-opacity:1;"
         offset="1"
         id="stop6771" />
    </linearGradient>
    <rect
       x="18.498208"
       y="179.5167"
       width="96.695177"
       height="32.371864"
       id="rect636" />
    <rect
       x="18.498208"
       y="79.458211"
       width="340.53519"
       height="181.19835"
       id="rect362" />
    <rect
       x="18.498208"
       y="79.458211"
       width="340.53519"
       height="181.19835"
       id="rect3655" />
    <rect
       x="18.498208"
       y="179.5167"
       width="96.695177"
       height="32.371864"
       id="rect3657" />
    <rect
       x="18.498208"
       y="79.458211"
       width="340.53519"
       height="181.19835"
       id="rect3956" />
    <rect
       x="18.498208"
       y="179.5167"
       width="96.695177"
       height="32.371864"
       id="rect3958" />
    <radialGradient
       inkscape:collect="always"
       xlink:href="#linearGradient6773"
       id="radialGradient6775"
       cx="59.994141"
       cy="156.82762"
       fx="59.994141"
       fy="156.82762"
       r="40.710938"
       gradientTransform="matrix(1,0,0,1.1041057,0,-16.326652)"
       gradientUnits="userSpaceOnUse" />
    <filter
       style="color-interpolation-filters:sRGB;"
       inkscape:label="Drop Shadow"
       id="filter12731"
       x="-0.10557534"
       y="-0.095620682"
       width="1.2393986"
       height="1.2457474">
      <feFlood
         flood-opacity="0.498039"
         flood-color="rgb(0,0,0)"
         result="flood"
         id="feFlood12721" />
      <feComposite
         in="flood"
         in2="SourceGraphic"
         operator="in"
         result="composite1"
         id="feComposite12723" />
      <feGaussianBlur
         in="composite1"
         stdDeviation="3.5"
         result="blur"
         id="feGaussianBlur12725" />
      <feOffset
         dx="2.3"
         dy="4.9"
         result="offset"
         id="feOffset12727" />
      <feComposite
         in="offset"
         in2="SourceGraphic"
         operator="out"
         result="composite2"
         id="feComposite12729" />
    </filter>
    <radialGradient
       inkscape:collect="always"
       xlink:href="#linearGradient6773"
       id="radialGradient12741"
       gradientUnits="userSpaceOnUse"
       gradientTransform="matrix(1,0,0,1.1041057,0,-16.326652)"
       cx="59.994141"
       cy="156.82762"
       fx="59.994141"
       fy="156.82762"
       r="40.710938" />
    <radialGradient
       inkscape:collect="always"
       xlink:href="#linearGradient6773"
       id="radialGradient12743"
       gradientUnits="userSpaceOnUse"
       gradientTransform="matrix(1,0,0,1.1041057,0,-16.326652)"
       cx="59.994141"
       cy="156.82762"
       fx="59.994141"
       fy="156.82762"
       r="40.710938" />
    <radialGradient
       inkscape:collect="always"
       xlink:href="#linearGradient6773"
       id="radialGradient12745"
       gradientUnits="userSpaceOnUse"
       gradientTransform="matrix(1.3582564,0,0,1.3651896,-21.772202,-56.300274)"
       cx="59.994141"
       cy="156.82762"
       fx="59.994141"
       fy="156.82762"
       r="40.710938" />
    <filter
       style="color-interpolation-filters:sRGB;"
       inkscape:label="Roughen"
       id="filter17357"
       x="-4.7424729e-09"
       y="-4.742883e-09"
       width="1"
       height="1">
      <feTurbulence
         type="fractalNoise"
         numOctaves="5"
         seed="17"
         baseFrequency="4.47238 3.97948"
         result="turbulence"
         id="feTurbulence17353" />
      <feDisplacementMap
         in="SourceGraphic"
         in2="turbulence"
         scale="5.09554"
         yChannelSelector="G"
         xChannelSelector="R"
         id="feDisplacementMap17355" />
    </filter>
    <filter
       inkscape:label="Feather"
       inkscape:menu="Pixel Tools"
       inkscape:menu-tooltip="Reduce or remove antialiasing around shapes"
       style="color-interpolation-filters:sRGB;"
       id="filter4219"
       x="-0.36854136"
       y="-0.37519994"
       width="1.7370827"
       height="1.7503999">
      <feColorMatrix
         values="1 0 0 0 0 0 1 0 0 0 0 0 1 0 0 0 0 0 1000 -500 "
         id="feColorMatrix4217"
         result="fbSourceGraphic" />
      <feColorMatrix
         result="fbSourceGraphicAlpha"
         in="fbSourceGraphic"
         values="0 0 0 -1 0 0 0 0 -1 0 0 0 0 -1 0 0 0 0 1 0"
         id="feColorMatrix7333" />
      <feGaussianBlur
         id="feGaussianBlur7335"
         stdDeviation="23.477"
         result="blur"
         in="fbSourceGraphic" />
      <feComposite
         in2="blur"
         id="feComposite7337"
         in="fbSourceGraphic"
         operator="atop"
         result="composite1" />
      <feComposite
         in2="composite1"
         id="feComposite7339"
         operator="in"
         result="composite2" />
      <feComposite
         in2="composite2"
         id="feComposite7341"
         operator="in"
         result="composite3" />
    </filter>
  </defs>
  <g
     inkscape:label="Layer 1 copy"
     inkscape:groupmode="layer"
     id="g3954"
     style="display:inline">
    <g
       id="g12739"
       transform="matrix(0.64387294,0,0,0.7214588,19.591844,12.788242)">
      <ellipse
         style="display:inline;fill:#190b28;stroke:#957fef;stroke-width:0;stroke-dasharray:none;stroke-opacity:1;fill-opacity:1;filter:url(#filter17357)"
         id="path12799"
         ry="52.710556"
         rx="52.715115"
         cy="52.914959"
         cx="52.919514"
         transform="matrix(1.5531015,0,0,1.3860806,-30.428121,-17.725533)" />
      <g
         aria-label="CODES"
         transform="matrix(1.0417833,0,0,0.9342033,-9.7304704,-93.662743)"
         id="g12397"
         style="font-weight:bold;font-size:24px;font-family:Tahoma;-inkscape-font-specification:'Tahoma, Bold';white-space:pre;shape-inside:url(#rect3958);display:inline;fill:url(#radialGradient12743);fill-opacity:1;stroke:#957fef;stroke-width:0.392285;stroke-dasharray:none;stroke-opacity:1;filter:url(#filter12731)">
        <path
           id="path12395"
           d="m 93.134766,201.72991 q -2.003907,0 -3.527344,-0.38672 -1.511719,-0.38672 -2.8125,-0.96093 v -4.14844 h 0.398437 q 1.3125,1.11328 2.894532,1.71094 1.582031,0.59765 3.070312,0.59765 0.375,0 0.984375,-0.082 0.621094,-0.082 0.996094,-0.25781 0.457031,-0.19922 0.773437,-0.55078 0.316407,-0.36328 0.316407,-0.94922 0,-0.65625 -0.515625,-1.06641 -0.515625,-0.41015 -1.230469,-0.59765 -0.890625,-0.23438 -1.910156,-0.44532 -1.007813,-0.21093 -1.886719,-0.51562 -2.027344,-0.71485 -2.90625,-1.92188 -0.878906,-1.20703 -0.878906,-3.02343 0,-2.44922 2.074218,-3.96094 2.074219,-1.52344 5.179688,-1.52344 1.558594,0 3.09375,0.31641 1.546875,0.3164 2.765623,0.85547 v 3.98437 h -0.386717 q -0.972656,-0.83203 -2.378906,-1.40625 -1.394531,-0.57422 -2.871094,-0.57422 -0.574219,0 -1.03125,0.082 -0.457031,0.082 -0.960937,0.31641 -0.410157,0.1875 -0.714844,0.5625 -0.292969,0.36328 -0.292969,0.82031 0,0.66797 0.46875,1.06641 0.480469,0.38672 1.839844,0.70312 0.878906,0.19922 1.6875,0.38672 0.820312,0.1875 1.746094,0.51563 1.816406,0.65625 2.695312,1.76953 0.890627,1.10156 0.890627,2.91797 0,2.60156 -2.050783,4.18359 -2.039063,1.58203 -5.519531,1.58203 z m -20.15625,-0.3164 v -17.44922 h 11.800781 v 3.32812 h -7.441406 v 3.0586 h 6.855468 v 3.32812 h -6.855468 v 4.40625 h 7.441406 v 3.32813 z m -2.589844,-8.70704 q 0,2.4375 -1.066406,4.3711 -1.066407,1.92187 -2.695313,2.95312 -1.359375,0.87891 -2.964844,1.13672 -1.59375,0.2461 -3.398437,0.2461 h -5.460938 v -17.44922 h 5.414063 q 1.839844,0 3.445312,0.23437 1.605469,0.23438 3.011719,1.13672 1.722656,1.10156 2.71875,2.97656 0.996094,1.86328 0.996094,4.39453 z m -4.5,-0.0351 q 0,-1.72266 -0.597656,-2.94141 -0.585938,-1.23047 -1.816407,-1.92187 -0.890625,-0.49219 -1.875,-0.53907 -0.972656,-0.0469 -2.332031,-0.0469 h -0.08203 v 10.92187 h 0.08203 q 1.476563,0 2.484375,-0.0469 1.019531,-0.0586 1.933594,-0.63281 1.078125,-0.67969 1.640625,-1.875 0.5625,-1.19532 0.5625,-2.91797 z m -13.675781,0.0234 q 0,4.23046 -2.261719,6.65625 -2.261719,2.42578 -6.199219,2.42578 -3.949219,0 -6.199219,-2.44922 -2.25,-2.46094 -2.25,-6.63281 0,-4.20704 2.25,-6.64454 2.25,-2.44921 6.199219,-2.44921 3.9375,0 6.199219,2.4375 2.261719,2.42578 2.261719,6.65625 z m -4.523438,-0.0117 q 0,-1.5586 -0.328125,-2.64844 -0.316406,-1.10156 -0.855469,-1.80469 -0.5625,-0.71484 -1.277343,-1.01953 -0.703125,-0.31641 -1.464844,-0.31641 -0.808594,0 -1.464844,0.29297 -0.65625,0.28125 -1.265625,1.01953 -0.539062,0.67969 -0.878906,1.80469 -0.328125,1.125 -0.328125,2.6836 0,1.60546 0.316406,2.67187 0.316406,1.05469 0.867188,1.76953 0.5625,0.72656 1.277343,1.04297 0.714844,0.30469 1.476563,0.30469 0.773437,0 1.5,-0.32813 0.726562,-0.33984 1.253906,-1.04297 0.5625,-0.76171 0.867188,-1.76953 0.304687,-1.01953 0.304687,-2.66015 z m -19.863281,9.07029 q -3.925781,0 -6.234375,-2.36719 -2.308594,-2.3789 -2.308594,-6.67969 0,-4.14843 2.308594,-6.60937 2.320312,-2.47266 6.246094,-2.47266 1.042968,0 1.875,0.11719 0.832031,0.11719 1.59375,0.32813 0.597656,0.17578 1.300781,0.48046 0.703125,0.30469 1.136719,0.52735 v 4.16015 h -0.445313 q -0.316406,-0.28125 -0.796875,-0.66796 -0.480469,-0.39844 -1.089844,-0.77344 -0.609375,-0.375 -1.347656,-0.63281 -0.726562,-0.26954 -1.523437,-0.26954 -0.949219,0 -1.746094,0.30469 -0.785156,0.29297 -1.5,1.03125 -0.65625,0.66797 -1.078125,1.80469 -0.410156,1.13672 -0.410156,2.68359 0,1.62891 0.433593,2.74219 0.433594,1.10156 1.136719,1.78125 0.679688,0.65625 1.511719,0.94922 0.84375,0.29297 1.675781,0.29297 0.867188,0 1.652344,-0.28125 0.785156,-0.29297 1.324219,-0.64453 0.585937,-0.36328 1.03125,-0.73828 0.445312,-0.375 0.773437,-0.66797 h 0.398438 v 4.10156 q -0.480469,0.22266 -1.113282,0.51562 -0.632812,0.28125 -1.300781,0.48047 -0.820312,0.2461 -1.535156,0.375 -0.714844,0.12891 -1.96875,0.12891 z M 92.332813,181.6683 h -2.203125 v -7.45313 q 0,-0.90234 -0.09377,-1.67578 -0.08201,-0.78516 -0.328138,-1.25391 -0.269518,-0.49219 -0.750002,-0.72656 -0.480469,-0.24609 -1.312498,-0.24609 -0.820312,0 -1.699219,0.44532 -0.86719,0.43359 -1.699219,1.13671 v 9.77344 h -2.203124 v -13.08985 h 2.203124 v 1.45313 q 0.984375,-0.87891 1.945312,-1.34766 0.960937,-0.46875 2.027342,-0.46875 1.933595,0 3.023437,1.27734 1.089846,1.26563 1.089846,3.67969 z M 80.93203,175.12923 q 0,3.30469 -1.593747,5.10938 -1.593751,1.79297 -4.242187,1.79297 -2.730471,0 -4.300781,-1.85157 -1.558594,-1.86328 -1.558594,-5.05078 0,-3.28125 1.605467,-5.09765 1.617188,-1.81641 4.253908,-1.81641 2.648436,0 4.242187,1.81641 1.593747,1.80468 1.593747,5.09765 z m -2.273435,0 q 0,-2.54297 -0.925784,-3.77344 -0.92578,-1.24218 -2.636715,-1.24218 -1.722656,0 -2.660156,1.24218 -0.925784,1.23047 -0.925784,3.77344 0,2.46094 0.925784,3.73828 0.9375,1.26563 2.660156,1.26563 1.699219,0 2.624999,-1.24219 0.9375,-1.25391 0.9375,-3.76172 z m -10.58047,6.53907 h -2.203124 v -13.08985 h 2.203124 z m 0.152353,-15.28125 h -2.507815 v -2.28516 h 2.507815 z m 30.629708,-33.46174 q 0,4.54688 -1.640625,8.625 -1.59375,4.03125 -4.453125,6.89063 -3.609375,3.5625 -8.484375,5.39062 -4.875,1.82813 -12.328125,1.82813 h -7.875 v 26.01562 h -9.28125 v -69.79687 h 17.53125 q 6.1875,0 10.546875,1.03125 4.359375,1.03125 7.6875,3.32812 3.890625,2.67188 6.09375,6.79688 2.203125,4.07812 2.203125,9.89062 z m -9.65625,0.23438 q 0,-3.60938 -1.265625,-6.28125 -1.21875,-2.67188 -3.75,-4.35938 -2.203125,-1.45312 -5.15625,-2.0625 -2.90625,-0.60937 -7.265625,-0.60937 h -7.6875 v 27.89062 h 6.328125 q 5.625,0 9.09375,-0.89062 3.46875,-0.9375 5.765625,-3.28125 2.0625,-2.10938 3,-4.59375 0.9375,-2.48438 0.9375,-5.8125 z m -35.793751,30.375 q 0,9.1875 -5.625,14.15625 -5.578125,4.96875 -15,4.96875 -2.25,0 -6.046875,-0.42188 -3.75,-0.375 -6.28125,-0.9375 v -8.85937 h 0.515625 q 1.921875,0.65625 4.734375,1.45312 2.859375,0.79688 5.8125,0.79688 4.3125,0 6.84375,-0.98438 2.578125,-0.98437 3.796875,-2.8125 1.265625,-1.875 1.59375,-4.59375 0.375,-2.71875 0.375,-6.28125 V 119.28469 H 29.36331 v -7.40625 h 24.046875 z"
           style="fill:url(#radialGradient12741);fill-opacity:1;stroke:#957fef;stroke-width:0.392285;stroke-dasharray:none;stroke-opacity:1" />
      </g>
      <ellipse
         style="display:inline;font-weight:bold;font-size:24px;font-family:Tahoma;-inkscape-font-specification:'Tahoma, Bold';white-space:pre;shape-inside:url(#rect3958);fill:#907a88;fill-opacity:1;stroke:#957fef;stroke-width:0;stroke-dasharray:none;stroke-opacity:1;filter:url(#filter4219)"
         id="path447"
         ry="75.086365"
         rx="76.442978"
         cy="160.88853"
         cx="60.048252"
         inkscape:label="path447"
         transform="matrix(1.0418645,0,0,0.90278517,-10.607025,-89.547783)" />
      <g
         aria-label="CODES"
         transform="matrix(0.81996002,0,0,0.70407379,3.671363,-54.799012)"
         id="text3952"
         style="font-weight:bold;font-size:24px;font-family:Tahoma;-inkscape-font-specification:'Tahoma, Bold';white-space:pre;shape-inside:url(#rect3958);fill:url(#radialGradient6775);fill-opacity:1;stroke:#000000;stroke-width:1.07945;stroke-dasharray:none;stroke-opacity:1">
        <path
           id="path4015"
           d="m 104.72869,213.31934 q -2.72182,0 -4.791037,-0.47817 -2.0533,-0.47816 -3.820093,-1.18815 v -5.12941 h 0.54118 q 1.782713,1.37653 3.93151,2.11552 2.14881,0.73897 4.17027,0.73897 0.50935,0 1.33704,-0.10139 0.8436,-0.10139 1.35295,-0.31877 0.62076,-0.24633 1.05053,-0.68102 0.42976,-0.44919 0.42976,-1.17368 0,-0.81143 -0.70035,-1.31858 -0.70035,-0.50714 -1.6713,-0.73897 -1.20969,-0.28981 -2.59448,-0.55063 -1.36887,-0.26081 -2.56265,-0.63754 -2.753647,-0.88389 -3.947426,-2.37634 -1.19378,-1.49246 -1.19378,-3.73837 0,-3.02838 2.817319,-4.89757 2.817317,-1.88369 7.035347,-1.88369 2.11697,0 4.2021,0.39123 2.10105,0.39122 3.75643,1.05776 v 4.92654 h -0.52526 q -1.32112,-1.02877 -3.23117,-1.73878 -1.89413,-0.71 -3.89968,-0.71 -0.77994,0 -1.4007,0.10139 -0.62077,0.10139 -1.3052,0.39123 -0.5571,0.23184 -0.97094,0.69551 -0.39793,0.44919 -0.39793,1.01429 0,0.82592 0.63668,1.31858 0.6526,0.47816 2.49898,0.86938 1.19378,0.24633 2.29206,0.47817 1.11419,0.23184 2.37164,0.63756 2.46715,0.81143 3.66093,2.18796 1.2097,1.36204 1.2097,3.60797 0,3.21675 -2.78549,5.17287 -2.76957,1.95613 -7.49694,1.95613 z m -27.377352,-0.39122 v -21.57537 h 16.028486 v 4.11511 H 83.272487 v 3.78185 h 9.311483 v 4.11511 h -9.311483 v 5.44818 h 10.107337 v 4.11512 z m -3.517673,-10.76596 q 0,3.01389 -1.448453,5.40472 -1.448454,2.37632 -3.660926,3.65143 -1.84638,1.08674 -4.027018,1.40552 -2.164722,0.30429 -4.615949,0.30429 h -7.417355 v -21.57537 h 7.353686 q 2.49898,0 4.679618,0.28979 2.180638,0.2898 4.090686,1.40551 2.339809,1.36205 3.69276,3.68042 1.352951,2.30388 1.352951,5.43369 z m -6.112154,-0.0434 q 0,-2.13001 -0.81177,-3.63696 -0.795854,-1.52143 -2.467146,-2.37632 -1.209698,-0.60858 -2.546731,-0.66655 -1.321117,-0.058 -3.167496,-0.058 H 58.61695 v 13.50453 h 0.111418 q 2.005551,0 3.374418,-0.058 1.384784,-0.0725 2.626316,-0.78245 1.464371,-0.84041 2.22839,-2.31837 0.764019,-1.47798 0.764019,-3.60798 z m -18.575218,0.0289 q 0,5.23082 -3.071994,8.23023 -3.071994,2.9994 -8.420129,2.9994 -5.364052,0 -8.420129,-3.02838 -3.056077,-3.04287 -3.056077,-8.20125 0,-5.20186 3.056077,-8.21575 3.056077,-3.02836 8.420129,-3.02836 5.348135,0 8.420129,3.01388 3.071994,2.9994 3.071994,8.23023 z m -6.143988,-0.0145 q 0,-1.92716 -0.445678,-3.27471 -0.429761,-1.36204 -1.161947,-2.23144 -0.764019,-0.88388 -1.734959,-1.26061 -0.955024,-0.39123 -1.989634,-0.39123 -1.098278,0 -1.989634,0.36224 -0.891355,0.34776 -1.719043,1.26062 -0.732184,0.84041 -1.19378,2.23144 -0.445678,1.39102 -0.445678,3.31818 0,1.98509 0.429761,3.30367 0.42976,1.30409 1.177864,2.18797 0.764019,0.89837 1.734959,1.2896 0.970942,0.37674 2.005551,0.37674 1.050526,0 2.037385,-0.40573 0.986857,-0.4202 1.703126,-1.28959 0.764019,-0.94183 1.177864,-2.18797 0.413843,-1.26061 0.413843,-3.28918 z m -26.97943,11.2151 q -5.332217,0 -8.4678792,-2.92695 -3.1356627,-2.94143 -3.1356627,-8.25921 0,-5.12939 3.1356627,-8.17226 3.1515782,-3.05736 8.4837972,-3.05736 1.416618,0 2.54673,0.1449 1.130112,0.1449 2.164722,0.40572 0.81177,0.21735 1.766794,0.59407 0.955024,0.37674 1.543956,0.65205 v 5.14389 h -0.60485 q -0.42976,-0.34776 -1.08236,-0.82591 -0.6526,-0.49266 -1.480288,-0.95633 -0.827687,-0.46368 -1.830462,-0.78245 -0.986858,-0.33328 -2.069218,-0.33328 -1.289283,0 -2.371644,0.37674 -1.066443,0.36225 -2.037385,1.27511 -0.891355,0.82592 -1.46437,2.23143 -0.557097,1.40552 -0.557097,3.31817 0,2.0141 0.588931,3.39063 0.588932,1.36204 1.543956,2.20245 0.92319,0.81144 2.053302,1.17368 1.146029,0.36225 2.27614,0.36225 1.177864,0 2.244307,-0.34776 1.066443,-0.36224 1.798629,-0.79694 0.795853,-0.44918 1.400702,-0.91285 0.604848,-0.46368 1.050526,-0.82593 h 0.541181 v 5.07144 q -0.6526,0.27532 -1.512123,0.63755 -0.859521,0.34776 -1.766794,0.59409 -1.114194,0.30429 -2.085136,0.46367 -0.970941,0.15939 -2.674067,0.15939 z m 87.616555,-24.8345 h -2.99241 v -9.21554 q 0,-1.11571 -0.12736,-2.07205 -0.11139,-0.97082 -0.44569,-1.55042 -0.366077,-0.60857 -1.018697,-0.89836 -0.6526,-0.30428 -1.782709,-0.30428 -1.114194,0 -2.307975,0.55062 -1.177866,0.53612 -2.307975,1.4055 v 12.08453 H 89.664207 V 172.3286 h 2.992407 v 1.79675 q 1.337034,-1.08674 2.642233,-1.66634 1.305198,-0.57959 2.753646,-0.57959 2.626317,0 4.106607,1.57939 1.48029,1.56491 1.48029,4.54981 z m -15.485181,-8.08534 q 0,4.08614 -2.164717,6.31758 -2.164723,2.21695 -5.761978,2.21695 -3.70868,0 -5.841563,-2.28941 -2.116971,-2.30388 -2.116971,-6.24512 0,-4.05715 2.180636,-6.30307 2.196556,-2.24593 5.777898,-2.24593 3.597255,0 5.761978,2.24593 2.164717,2.23143 2.164717,6.30307 z m -3.087908,0 q 0,-3.14429 -1.257452,-4.66573 -1.257446,-1.53591 -3.581335,-1.53591 -2.339808,0 -3.613174,1.53591 -1.257452,1.52144 -1.257452,4.66573 0,3.04287 1.257452,4.62226 1.273366,1.56491 3.613174,1.56491 2.307975,0 3.565422,-1.53593 1.273365,-1.55041 1.273365,-4.65124 z M 70.69535,188.51376 H 67.702942 V 172.3286 h 2.992408 z m 0.206934,-18.89475 h -3.406256 v -2.82552 h 3.406256 z m 41.602996,-41.37432 q 0,5.62207 -2.22839,10.66453 -2.16472,4.9845 -6.04849,8.52003 -4.902447,4.40491 -11.52395,6.66532 -6.6215,2.26042 -16.744755,2.26042 H 65.263426 v 32.16744 H 52.657108 v -86.30148 h 23.811933 q 8.404212,0 14.325361,1.2751 5.921149,1.27511 10.441598,4.11511 5.28446,3.30369 8.27687,8.40412 2.99241,5.04245 2.99241,12.22941 z m -13.115657,0.28981 q 0,-4.46288 -1.71905,-7.76656 -1.655372,-3.30369 -5.093459,-5.39022 -2.992409,-1.79674 -7.00351,-2.55022 -3.947433,-0.75346 -9.868582,-0.75346 H 65.263426 v 34.48581 h 8.595216 q 7.640193,0 12.351645,-1.10122 4.711452,-1.15919 7.831197,-4.05715 2.801404,-2.60818 4.074769,-5.68002 1.27337,-3.07185 1.27337,-7.18696 z m -48.617097,37.55766 q 0,11.36004 -7.640193,17.50373 -7.576524,6.14369 -20.373847,6.14369 -3.056077,0 -8.213206,-0.52164 -5.0934618,-0.46367 -8.5315481,-1.15918 v -10.95425 h 0.700351 q 2.6103983,0.81143 6.4304951,1.79674 3.883764,0.98531 7.894865,0.98531 5.857481,0 9.295568,-1.21715 3.501755,-1.21714 5.15713,-3.47756 1.719043,-2.31838 2.164721,-5.68002 0.509346,-3.36164 0.509346,-7.76655 V 111.3786 H 18.110703 v -9.15758 h 32.661823 z"
           style="fill:url(#radialGradient12745);fill-opacity:1;stroke:#000000;stroke-width:1.07945;stroke-dasharray:none;stroke-opacity:1" />
      </g>
      <path
         style="fill:#000000;stroke:#957fef;stroke-width:0"
         id="path441"
         sodipodi:type="arc"
         sodipodi:cx="60.374283"
         sodipodi:cy="50.73494"
         sodipodi:rx="7.4094763"
         sodipodi:ry="6.7423191"
         sodipodi:start="0"
         sodipodi:end="0.011402309"
         sodipodi:arc-type="slice"
         d="m 67.783759,50.73494 a 7.4094763,6.7423191 0 0 1 -4.82e-4,0.07688 l -7.408994,-0.07688 z" />
    </g>
  </g>
</svg>
